# xmcd
#
# Track frame offsets: 
#        150
#        21787
#        38624
#        79311
#
# Disc length: 1371 seconds
#
# Revision: 0
# Processed by: cddbd v1.5.2PL0 Copyright (c) Steve Scherf et al.
# Submitted via: ExactAudioCopyFreeDBPlugin 1.0
#
DISCID=24055904
DTITLE=Lana Del Rey - Video Games (EP)
DYEAR=2011
DGENRE=Folk/Rock
TTITLE0=Video Games
TTITLE1=Blue Jeans
TTITLE2=Video Games (Mr. Fingers Remix)
TTITLE3=Video Games (Omid 16B Remix)
EXTD=
EXTT0=
EXTT1=
EXTT2=
EXTT3=
PLAYORDER=
